<?xml version="1.0" standalone="no"?>
<svg viewBox="0 0 200 200" xmlns="http://www.w3.org/2000/svg">
  <path fill="#FA4D56" d="M42.4,-64.2C54.6,-58.1,64,-45.8,61.6,-33.3C59.2,-20.8,45.1,-8.2,37.1,1C29,10.1,26.9,15.8,26.2,30.5C25.6,45.1,26.3,68.7,19,75.9C11.7,83.1,-3.6,73.9,-18.4,67.4C-33.2,60.9,-47.5,57.2,-53.2,47.7C-59,38.2,-56.3,23,-53.4,10.7C-50.5,-1.6,-47.5,-11,-47.2,-25.8C-47,-40.6,-49.6,-60.9,-42.2,-69.2C-34.8,-77.4,-17.4,-73.6,-1.2,-71.8C15.1,-70,30.2,-70.2,42.4,-64.2Z" transform="translate(100 100)" />
</svg>
