<?xml version="1.0" standalone="no"?>
<svg viewBox="0 0 200 200" xmlns="http://www.w3.org/2000/svg">
  <path fill="#FA4D56" d="M37.5,-64.5C45.1,-53.5,45.3,-37.1,49.8,-23.8C54.3,-10.4,63.1,0,61.1,8.3C59.1,16.5,46.2,22.7,37,30.4C27.8,38.1,22.2,47.3,14.9,48.3C7.6,49.3,-1.3,42.2,-13,40.4C-24.6,38.7,-39,42.5,-51.8,38.7C-64.7,35,-76,23.8,-71,14.3C-66.1,4.8,-44.8,-3,-38.6,-18C-32.3,-33,-41.1,-55.3,-37.2,-68.1C-33.3,-80.8,-16.6,-83.9,-0.8,-82.6C15,-81.3,29.9,-75.6,37.5,-64.5Z" transform="translate(100 100)" />
</svg>
